<?xml version="1.0" encoding="utf-8"?><svg viewBox="0 0 130 130" xmlns="http://www.w3.org/2000/svg" xmlns:xlink="http://www.w3.org/1999/xlink"><style>:root>svg{display:none}:root>svg:target{display:block}</style><svg fill="none" viewBox="0 0 9 17" id="dolar" xmlns="http://www.w3.org/2000/svg"><path d="M8.486 11.062c0 .576-.144 1.128-.432 1.656-.288.516-.714.948-1.278 1.296-.552.348-1.218.546-1.998.594v1.458h-.972v-1.458c-1.092-.096-1.98-.444-2.664-1.044C.458 12.952.11 12.178.098 11.242h1.746c.048.504.234.942.558 1.314.336.372.804.606 1.404.702v-4.5c-.804-.204-1.452-.414-1.944-.63A3.18 3.18 0 01.602 7.12C.254 6.664.08 6.052.08 5.284c0-.972.336-1.776 1.008-2.412.684-.636 1.59-.99 2.718-1.062V.316h.972V1.81c1.02.084 1.842.414 2.466.99.624.564.984 1.302 1.08 2.214H6.578A2.071 2.071 0 006.02 3.88c-.312-.348-.726-.576-1.242-.684v4.392c.792.204 1.434.414 1.926.63a2.89 2.89 0 011.26.99c.348.456.522 1.074.522 1.854zM1.754 5.194c0 .588.174 1.038.522 1.35.348.312.858.57 1.53.774V3.16c-.624.06-1.122.264-1.494.612-.372.336-.558.81-.558 1.422zm3.024 8.082c.648-.072 1.152-.306 1.512-.702.372-.396.558-.87.558-1.422 0-.588-.18-1.038-.54-1.35-.36-.324-.87-.582-1.53-.774v4.248z" fill="#C5BCB0"/></svg><svg fill="none" viewBox="0 0 130 130" id="star" xmlns="http://www.w3.org/2000/svg"><g filter="url(#bfilter0_dddddd_1_878)"><path d="M65 50l.53 14.47L80 65l-14.47.53L65 80l-.53-14.47L50 65l14.47-.53L65 50z" fill="#FFC200"/></g><defs><filter id="bfilter0_dddddd_1_878" x=".86" y=".86" width="128.28" height="128.28" filterUnits="userSpaceOnUse" color-interpolation-filters="sRGB"><feFlood flood-opacity="0" result="BackgroundImageFix"/><feColorMatrix in="SourceAlpha" values="0 0 0 0 0 0 0 0 0 0 0 0 0 0 0 0 0 0 127 0" result="hardAlpha"/><feOffset/><feGaussianBlur stdDeviation=".585"/><feColorMatrix values="0 0 0 0 1 0 0 0 0 0.760784 0 0 0 0 0 0 0 0 1 0"/><feBlend in2="BackgroundImageFix" result="effect1_dropShadow_1_878"/><feColorMatrix in="SourceAlpha" values="0 0 0 0 0 0 0 0 0 0 0 0 0 0 0 0 0 0 127 0" result="hardAlpha"/><feOffset/><feGaussianBlur stdDeviation="1.17"/><feColorMatrix values="0 0 0 0 1 0 0 0 0 0.760784 0 0 0 0 0 0 0 0 1 0"/><feBlend in2="effect1_dropShadow_1_878" result="effect2_dropShadow_1_878"/><feColorMatrix in="SourceAlpha" values="0 0 0 0 0 0 0 0 0 0 0 0 0 0 0 0 0 0 127 0" result="hardAlpha"/><feOffset/><feGaussianBlur stdDeviation="4.095"/><feColorMatrix values="0 0 0 0 1 0 0 0 0 0.760784 0 0 0 0 0 0 0 0 1 0"/><feBlend in2="effect2_dropShadow_1_878" result="effect3_dropShadow_1_878"/><feColorMatrix in="SourceAlpha" values="0 0 0 0 0 0 0 0 0 0 0 0 0 0 0 0 0 0 127 0" result="hardAlpha"/><feOffset/><feGaussianBlur stdDeviation="8.19"/><feColorMatrix values="0 0 0 0 1 0 0 0 0 0.760784 0 0 0 0 0 0 0 0 1 0"/><feBlend in2="effect3_dropShadow_1_878" result="effect4_dropShadow_1_878"/><feColorMatrix in="SourceAlpha" values="0 0 0 0 0 0 0 0 0 0 0 0 0 0 0 0 0 0 127 0" result="hardAlpha"/><feOffset/><feGaussianBlur stdDeviation="14.04"/><feColorMatrix values="0 0 0 0 1 0 0 0 0 0.760784 0 0 0 0 0 0 0 0 1 0"/><feBlend in2="effect4_dropShadow_1_878" result="effect5_dropShadow_1_878"/><feColorMatrix in="SourceAlpha" values="0 0 0 0 0 0 0 0 0 0 0 0 0 0 0 0 0 0 127 0" result="hardAlpha"/><feOffset/><feGaussianBlur stdDeviation="24.57"/><feColorMatrix values="0 0 0 0 1 0 0 0 0 0.760784 0 0 0 0 0 0 0 0 1 0"/><feBlend in2="effect5_dropShadow_1_878" result="effect6_dropShadow_1_878"/><feBlend in="SourceGraphic" in2="effect6_dropShadow_1_878" result="shape"/></filter></defs></svg><svg fill="none" viewBox="0 0 44 30" id="swiper_arrow" xmlns="http://www.w3.org/2000/svg"><path fill-rule="evenodd" clip-rule="evenodd" d="M.125 15a1.562 1.562 0 011.563-1.563H38.54l-9.835-9.83a1.565 1.565 0 012.213-2.213l12.5 12.5a1.562 1.562 0 010 2.212l-12.5 12.5a1.565 1.565 0 01-2.213-2.212l9.835-9.831H1.688A1.563 1.563 0 01.125 15z" fill="#fff"/></svg><svg fill="none" viewBox="0 0 29 33" id="wach_arrow" xmlns="http://www.w3.org/2000/svg"><path d="M27.091 14.779c1.31.774 1.31 2.668 0 3.442L3.02 32.467C1.685 33.257 0 32.295 0 30.746V2.254C0 .704 1.685-.256 3.019.533L27.09 14.779z" fill="#FFE999"/></svg></svg>